<svg xmlns="http://www.w3.org/2000/svg" width="896" height="307" viewBox="0 0 896 307">
<g>
<path d="M 135.50 284.54 C107.77,279.47 82.98,267.11 63.18,248.49 C23.95,211.58 10.71,160.62 27.19,110.00 C37.73,77.63 62.06,49.78 95.31,32.01 C125.00,16.15 166.75,12.66 202.22,23.08 C253.30,38.09 292.17,82.92 299.11,134.84 C300.70,146.77 299.68,170.20 297.12,180.55 C291.44,203.50 281.63,222.11 266.15,239.32 C244.53,263.35 216.46,278.83 184.26,284.46 C173.53,286.34 145.58,286.38 135.50,284.54 ZM 181.51 282.47 C210.19,278.22 237.81,264.26 258.55,243.54 C270.24,231.87 277.29,222.27 283.95,209.00 C295.25,186.47 299.82,161.80 297.01,138.50 C291.45,92.31 264.76,54.79 222.78,34.13 C208.59,27.15 201.70,24.79 187.54,22.05 C151.75,15.15 115.35,21.79 85.19,40.72 C55.51,59.36 33.48,89.91 25.86,123.00 C22.96,135.60 22.25,159.69 24.40,172.53 C31.43,214.49 57.92,249.46 97.50,269.04 C118.65,279.51 136.14,283.71 159.37,283.90 C165.90,283.96 175.87,283.31 181.51,282.47 ZM 825.65 208.96 C818.95,207.82 810.47,203.47 805.76,198.76 C803.58,196.58 800.43,191.86 798.74,188.26 C796.16,182.75 795.67,180.46 795.59,173.61 C795.48,163.68 796.84,158.97 802.06,151.14 C809.61,139.85 819.59,134.71 834.00,134.70 C843.96,134.69 852.53,136.90 856.93,140.60 C860.33,143.46 860.72,145.71 858.54,149.93 C855.83,155.16 851.62,155.40 849.97,150.41 C848.44,145.76 843.39,140.06 839.30,138.35 C829.78,134.37 819.14,139.86 813.82,151.50 C811.95,155.60 811.54,158.22 811.55,166.00 C811.56,174.53 811.87,176.17 814.67,182.12 C820.94,195.48 829.91,201.99 842.00,201.97 C850.41,201.95 856.08,199.40 862.25,192.83 C867.71,187.02 868.64,188.57 863.62,195.13 C855.48,205.80 840.07,211.41 825.65,208.96 ZM 414.44 189.42 C409.14,178.46 401.08,161.62 396.54,152.00 C391.99,142.38 384.73,127.53 380.41,119.00 L 372.56 103.50 L 371.81 118.00 C371.40,125.97 370.38,145.55 369.54,161.50 C367.99,190.87 368.21,195.61 371.32,200.37 C373.03,202.98 378.71,206.00 381.90,206.00 C383.06,206.00 384.00,206.51 384.00,207.14 C384.00,207.98 379.62,208.12 367.75,207.67 C358.81,207.34 351.27,207.04 351.00,207.01 C350.73,206.98 352.34,206.12 354.58,205.10 C359.82,202.72 362.59,199.14 363.90,193.05 C364.47,190.37 365.86,170.25 366.98,148.34 C368.11,126.43 369.27,107.31 369.57,105.85 C370.22,102.70 368.08,97.22 365.22,94.67 C364.08,93.66 360.99,92.27 358.33,91.59 C353.71,90.40 354.18,90.32 369.49,89.65 C378.29,89.27 385.60,89.30 385.75,89.73 C385.90,90.15 390.98,100.85 397.06,113.50 C403.13,126.15 413.32,147.42 419.70,160.77 L 431.30 185.04 L 433.23 180.77 C436.64,173.20 453.48,134.13 462.94,111.82 L 472.14 90.14 L 480.82 89.82 C485.59,89.64 491.75,89.73 494.50,90.00 C499.16,90.47 499.28,90.56 496.36,91.21 C494.63,91.59 491.93,93.01 490.36,94.37 C487.66,96.69 487.50,97.27 487.52,104.66 C487.54,112.61 490.11,153.26 492.44,182.57 C493.86,200.44 494.81,203.08 500.60,205.17 C502.47,205.85 504.00,206.79 504.00,207.26 C504.00,208.13 468.21,208.11 466.65,207.24 C466.19,206.98 467.60,205.96 469.80,204.98 C475.92,202.24 476.37,199.81 475.09,176.24 C473.48,146.57 470.91,110.86 470.15,107.72 C469.58,105.31 468.45,107.32 461.78,122.72 C444.87,161.74 436.60,181.11 431.35,194.00 C428.33,201.43 425.45,207.91 424.96,208.42 C424.43,208.96 420.16,201.25 414.44,189.42 ZM 516.00 207.00 C516.00,206.45 516.87,206.00 517.94,206.00 C519.01,206.00 521.15,204.91 522.69,203.59 L 525.50 201.18 L 525.80 175.63 C526.14,145.96 525.83,144.48 518.98,143.38 C515.01,142.75 513.40,141.00 516.79,141.00 C517.77,141.00 523.83,139.50 530.25,137.68 L 541.92 134.35 L 542.21 167.76 L 542.50 201.18 L 545.31 203.59 C546.85,204.91 548.99,206.00 550.06,206.00 C551.13,206.00 552.00,206.45 552.00,207.00 C552.00,207.63 545.33,208.00 534.00,208.00 C522.67,208.00 516.00,207.63 516.00,207.00 ZM 565.00 207.00 C565.00,206.45 565.87,206.00 566.94,206.00 C568.01,206.00 570.15,204.91 571.69,203.59 L 574.50 201.18 L 574.82 177.84 C575.00,165.00 574.86,152.56 574.50,150.18 C573.75,145.15 571.05,142.00 567.50,142.00 C566.12,142.00 565.00,141.61 565.00,141.13 C565.00,140.18 589.20,133.89 589.96,134.64 C590.22,134.89 590.45,138.22 590.46,142.05 C590.50,148.87 591.28,150.85 592.47,147.10 C593.55,143.68 602.54,136.20 607.02,135.00 C614.55,132.97 621.00,136.45 621.00,142.54 C621.00,146.60 617.61,151.00 614.47,151.00 C611.84,151.00 610.83,150.11 607.96,145.25 C605.55,141.19 602.35,140.99 598.03,144.63 C591.50,150.13 591.00,152.44 591.01,177.21 C591.03,202.89 591.30,204.00 597.76,205.44 C600.09,205.96 602.00,206.75 602.00,207.19 C602.00,207.64 593.67,208.00 583.50,208.00 C571.83,208.00 565.00,207.63 565.00,207.00 ZM 632.57 207.11 C632.27,206.62 633.58,205.93 635.48,205.57 C641.82,204.38 642.00,203.54 642.00,174.50 C642.00,145.03 641.88,144.48 634.96,143.38 C629.86,142.56 630.71,141.41 637.45,140.01 C640.43,139.39 646.25,137.84 650.39,136.56 C654.53,135.29 658.17,134.51 658.50,134.83 C658.82,135.15 659.02,149.96 658.94,167.73 C658.79,203.46 658.95,204.44 665.05,205.66 C666.67,205.98 668.00,206.64 668.00,207.12 C668.00,208.28 633.28,208.26 632.57,207.11 ZM 681.00 207.00 C681.00,206.45 682.15,206.00 683.55,206.00 C684.95,206.00 687.20,204.90 688.55,203.55 L 691.00 201.09 L 691.00 170.55 L 691.00 140.00 L 686.00 140.00 C682.22,140.00 681.00,139.63 681.00,138.50 C681.00,137.53 682.06,136.96 684.00,136.88 C685.65,136.81 687.45,136.64 688.00,136.50 C688.55,136.36 689.57,136.19 690.27,136.12 C691.14,136.04 691.63,133.83 691.80,129.25 C692.64,107.25 701.33,93.66 717.28,89.41 C723.98,87.63 727.45,87.65 733.67,89.49 C740.45,91.51 744.00,94.91 744.00,99.40 C744.00,105.55 735.67,108.91 734.44,103.25 C732.61,94.88 730.01,91.96 723.79,91.33 C718.07,90.74 713.96,93.39 710.90,99.65 C708.77,104.00 708.49,106.13 708.16,120.25 L 707.79 136.00 L 715.15 136.11 C725.93,136.26 726.50,136.36 726.50,138.00 C726.50,139.20 724.68,139.56 717.25,139.79 L 708.00 140.08 L 708.00 170.58 L 708.00 201.09 L 710.45 203.55 C711.99,205.08 714.05,206.00 715.95,206.00 C717.63,206.00 719.00,206.45 719.00,207.00 C719.00,207.63 712.00,208.00 700.00,208.00 C688.00,208.00 681.00,207.63 681.00,207.00 ZM 748.00 207.00 C748.00,206.45 748.87,206.00 749.94,206.00 C751.01,206.00 753.15,204.91 754.69,203.59 L 757.50 201.17 L 757.50 174.69 C757.50,150.14 757.36,148.06 755.61,146.13 C754.57,144.98 752.21,143.76 750.36,143.41 C746.57,142.70 745.81,141.03 749.25,140.95 C750.49,140.93 756.56,139.43 762.75,137.62 L 774.00 134.34 L 774.00 166.72 C774.00,203.26 774.19,204.38 780.50,205.57 C788.49,207.06 782.91,208.00 766.00,208.00 C754.67,208.00 748.00,207.63 748.00,207.00 ZM 525.92 120.08 C516.71,110.86 530.48,97.20 540.21,105.90 C542.90,108.30 543.45,109.52 543.45,113.00 C543.45,121.97 532.31,126.47 525.92,120.08 ZM 642.92 120.08 C635.76,112.91 642.27,101.52 652.44,103.42 C657.02,104.28 660.00,108.14 660.00,113.21 C660.00,122.12 649.27,126.43 642.92,120.08 ZM 757.92 120.08 C748.78,110.93 762.55,97.27 772.21,105.90 C774.90,108.30 775.45,109.52 775.45,113.00 C775.45,121.97 764.31,126.47 757.92,120.08 ZM 147.51 265.42 C134.55,262.85 120.94,254.21 112.38,243.11 C109.61,239.52 107.78,238.07 106.00,238.03 C100.30,237.89 89.05,234.80 82.49,231.58 C71.12,225.98 59.07,213.65 54.08,202.50 C47.03,186.74 46.45,167.71 52.56,152.45 L 55.11 146.07 L 52.48 137.79 C49.01,126.87 48.76,112.74 51.87,103.00 C56.23,89.34 67.74,75.17 79.71,68.73 C86.29,65.18 98.72,62.00 105.99,62.00 C111.09,62.00 111.80,61.74 113.07,59.37 C116.94,52.13 132.86,41.36 144.50,38.10 C152.17,35.95 164.98,35.62 172.00,37.38 C183.50,40.27 194.54,46.44 202.58,54.49 L 209.78 61.69 L 217.72 62.30 C232.19,63.41 244.45,69.23 255.13,80.04 C270.81,95.90 275.97,118.96 268.64,140.35 L 265.95 148.21 L 268.42 154.39 C275.56,172.25 273.14,195.40 262.44,211.52 C251.86,227.46 230.59,239.84 213.50,240.01 C210.00,240.04 209.12,240.56 206.50,244.10 C199.34,253.78 184.79,262.67 171.47,265.49 C163.03,267.28 156.76,267.26 147.51,265.42 ZM 168.57 263.96 C181.11,261.75 195.25,254.07 203.02,245.24 L 207.13 240.57 L 199.15 238.86 C186.02,236.04 176.87,230.94 167.08,221.03 L 158.66 212.50 L 151.39 219.59 C142.72,228.05 131.28,234.24 120.06,236.53 C115.96,237.37 112.41,238.26 112.17,238.50 C111.37,239.30 119.14,248.06 124.16,252.04 C130.76,257.25 140.12,261.73 148.00,263.43 C156.04,265.18 160.93,265.30 168.57,263.96 ZM 211.24 233.25 C218.08,220.57 220.27,201.18 216.30,188.50 L 214.42 182.50 L 205.46 181.86 C192.28,180.92 183.25,177.40 173.38,169.36 C168.10,165.05 167.76,164.92 168.37,167.35 C171.27,178.91 169.77,191.16 164.07,202.39 L 160.07 210.29 L 161.99 212.99 C165.66,218.15 176.58,227.52 182.73,230.78 C188.91,234.07 201.22,237.84 206.09,237.94 C208.18,237.99 209.18,237.08 211.24,233.25 ZM 222.50 236.50 C239.04,233.02 255.20,220.87 262.86,206.16 C265.11,201.83 267.64,195.66 268.47,192.44 C271.38,181.28 269.91,161.43 265.56,153.13 L 264.29 150.71 L 261.23 155.11 C256.95,161.26 249.60,168.11 242.19,172.84 C236.15,176.70 222.53,182.00 218.64,182.00 C217.27,182.00 216.97,182.46 217.49,183.75 C217.88,184.71 218.85,189.10 219.65,193.50 C221.87,205.77 219.98,219.77 214.45,231.87 C213.10,234.82 212.00,237.41 212.00,237.62 C212.00,238.34 215.52,237.96 222.50,236.50 ZM 106.00 235.08 C106.00,234.58 105.11,232.09 104.03,229.56 C97.93,215.33 97.70,195.66 103.49,181.75 C104.05,180.40 103.72,180.00 102.03,180.00 C97.74,180.00 84.62,174.85 78.12,170.62 C71.18,166.10 62.72,157.76 59.48,152.25 C58.43,150.46 57.25,149.00 56.86,149.00 C55.49,149.00 52.12,159.78 51.06,167.61 C48.49,186.39 54.28,203.84 67.84,218.21 C73.11,223.80 76.14,225.99 83.51,229.58 C88.97,232.24 95.04,234.38 98.58,234.89 C101.83,235.37 104.84,235.81 105.25,235.88 C105.66,235.95 106.00,235.59 106.00,235.08 ZM 125.28 232.96 C135.96,229.69 154.77,216.46 156.50,211.00 C156.83,209.95 156.16,207.28 154.99,204.98 C152.08,199.27 149.00,186.72 149.00,180.55 C149.00,177.73 149.68,172.83 150.50,169.66 C151.32,166.49 152.00,163.68 152.00,163.41 C152.00,163.15 150.14,164.71 147.87,166.89 C139.88,174.58 127.01,179.75 113.06,180.89 L 105.58 181.50 L 103.66 187.50 C100.77,196.56 100.80,213.30 103.73,222.50 C104.95,226.35 106.83,230.91 107.89,232.64 C109.73,235.60 110.09,235.75 114.67,235.25 C117.32,234.97 122.10,233.94 125.28,232.96 ZM 162.77 200.25 C169.64,185.13 169.41,169.65 162.16,158.67 L 159.63 154.84 L 157.82 157.17 C152.83,163.57 150.40,181.10 152.91,192.50 C154.11,197.94 157.93,207.00 159.02,207.00 C159.40,207.00 161.08,203.96 162.77,200.25 ZM 213.00 179.34 C213.00,177.61 206.41,168.71 202.38,165.00 C199.90,162.71 194.41,159.19 190.19,157.17 C183.60,154.02 181.59,153.52 176.13,153.66 C172.63,153.75 168.20,154.12 166.28,154.48 C162.25,155.23 161.97,154.71 171.60,164.50 C178.02,171.03 186.65,176.14 195.11,178.42 C200.61,179.90 213.00,180.53 213.00,179.34 ZM 227.70 177.47 C238.83,174.17 252.27,164.06 259.52,153.53 L 263.17 148.23 L 261.44 144.87 C258.11,138.36 246.77,128.43 237.82,124.15 C227.17,119.07 216.00,116.53 216.00,119.19 C216.00,121.96 207.32,134.41 201.87,139.46 C198.62,142.47 192.78,146.47 188.88,148.36 L 181.80 151.78 L 185.65 153.03 C196.83,156.65 206.61,164.30 212.55,174.09 C216.13,179.98 216.22,180.05 219.84,179.39 C221.85,179.02 225.39,178.16 227.70,177.47 ZM 117.18 162.46 C120.22,159.69 125.68,156.09 129.32,154.46 C132.97,152.83 135.94,151.27 135.93,151.00 C135.92,150.73 133.68,149.45 130.94,148.17 C120.69,143.36 112.74,135.23 106.45,123.13 L 103.67 117.76 L 98.35 118.39 C83.83,120.10 69.03,129.38 60.27,142.27 L 57.70 146.05 L 61.47 151.52 C70.16,164.14 84.51,174.12 98.53,177.30 L 104.43 178.64 L 108.04 173.07 C110.02,170.01 114.14,165.23 117.18,162.46 ZM 125.50 176.86 C131.37,175.30 140.81,170.40 145.78,166.32 C150.04,162.83 155.74,155.40 154.84,154.51 C154.59,154.26 150.14,153.93 144.94,153.78 C136.50,153.53 134.90,153.78 129.88,156.14 C123.54,159.11 117.49,164.21 111.84,171.34 C106.16,178.50 106.53,179.42 114.75,178.60 C118.46,178.22 123.30,177.44 125.50,176.86 ZM 156.00 149.46 C156.00,147.70 151.26,140.15 147.78,136.38 C138.85,126.69 124.67,119.49 112.14,118.30 L 105.79 117.69 L 107.54 121.10 C113.65,132.99 120.89,140.47 132.21,146.56 C137.98,149.67 139.23,149.96 147.25,149.98 C152.06,149.99 156.00,149.76 156.00,149.46 ZM 187.99 146.37 C196.69,142.02 206.20,133.03 210.92,124.69 C212.73,121.50 214.00,118.67 213.74,118.41 C212.82,117.49 198.39,120.26 192.38,122.52 C178.27,127.81 166.00,139.14 166.00,146.88 C166.00,149.40 167.20,149.83 174.62,149.92 C179.74,149.99 181.91,149.41 187.99,146.37 ZM 165.24 139.00 C167.14,135.21 167.50,132.92 167.47,124.50 C167.46,119.00 166.86,112.70 166.15,110.50 C163.58,102.57 160.75,96.00 159.91,96.00 C158.55,96.00 156.24,101.14 154.04,109.11 C150.31,122.57 151.67,136.74 157.56,145.73 L 159.25 148.32 L 161.12 145.91 C162.15,144.58 164.00,141.48 165.24,139.00 ZM 268.87 132.15 C275.12,103.01 254.64,71.69 225.26,65.47 C217.94,63.92 210.63,63.54 211.17,64.75 C211.36,65.16 212.75,67.85 214.26,70.73 C219.70,81.08 221.56,97.76 218.64,110.16 L 217.30 115.82 L 221.86 116.50 C227.77,117.39 237.54,120.95 243.27,124.31 C249.14,127.75 257.85,135.74 261.53,141.05 L 264.43 145.22 L 266.09 141.31 C267.00,139.16 268.26,135.04 268.87,132.15 ZM 67.32 130.73 C73.89,124.39 86.62,118.14 95.93,116.67 C102.46,115.64 103.05,115.36 102.46,113.52 C102.11,112.41 101.59,106.32 101.31,100.00 C100.74,87.04 102.23,78.43 106.49,70.02 C107.87,67.30 109.00,64.77 109.00,64.40 C109.00,63.04 94.40,65.24 88.37,67.51 C70.64,74.19 56.61,90.12 52.95,107.73 C51.40,115.20 52.25,130.90 54.58,137.87 L 56.38 143.24 L 59.38 139.37 C61.03,137.24 64.61,133.35 67.32,130.73 ZM 150.50 123.25 C150.50,110.82 150.59,110.27 154.21,101.50 L 157.92 92.50 L 155.26 88.66 C147.72,77.77 129.94,66.92 115.72,64.53 L 111.94 63.90 L 109.00 70.20 C104.09,80.74 102.68,88.08 103.27,100.00 C103.56,105.78 104.28,111.74 104.87,113.25 C105.82,115.66 106.49,116.00 110.27,116.00 C120.75,116.00 135.36,122.29 145.00,130.97 C148.02,133.69 150.50,135.93 150.50,135.96 C150.50,135.98 150.50,130.26 150.50,123.25 ZM 186.45 122.93 C194.31,119.06 205.28,116.05 211.70,116.02 C214.53,116.00 215.04,115.56 216.03,112.25 C218.06,105.43 218.35,91.13 216.60,83.69 C214.88,76.37 210.81,66.92 208.58,65.07 C206.45,63.30 194.19,66.27 186.13,70.50 C177.36,75.11 168.53,82.23 164.33,88.10 L 161.03 92.70 L 163.87 98.60 C168.68,108.60 169.42,111.89 169.46,123.61 L 169.50 134.73 L 173.95 130.82 C176.39,128.66 182.02,125.12 186.45,122.93 ZM 181.33 70.52 C188.84,66.36 198.57,63.00 203.09,63.00 C204.88,63.00 206.00,62.48 206.00,61.64 C206.00,59.96 198.17,52.56 191.67,48.11 C169.77,33.09 138.93,35.94 120.12,54.71 C116.61,58.21 113.98,61.31 114.27,61.60 C114.56,61.89 117.63,62.79 121.09,63.60 C131.70,66.07 142.44,72.43 151.50,81.59 L 159.50 89.68 L 167.00 81.99 C171.67,77.19 177.07,72.87 181.33,70.52 Z" fill="rgba(0,0,0,1)"/>
</g>
</svg>